name D:\PhD\Datasets\SharingData_IBEC_VALDUCE\DC_Comp_0001.mot
datacolumns 46
datarows 11
range 0.01000000 0.11000000
endheader
                time	         pelvis_tilt	     pelvis_rotation	           pelvis_tx	           pelvis_ty	           pelvis_tz	       hip_flexion_r	     hip_adduction_r	      hip_rotation_r	        knee_angle_r	       ankle_angle_r	    subtalar_angle_r	         mtp_angle_r	       hip_flexion_l	     hip_adduction_l	      hip_rotation_l	        knee_angle_l	       ankle_angle_l	    subtalar_angle_l	         mtp_angle_l	    lumbar_extension	      lumbar_bending	     lumbar_rotation	          arm_flex_r	           arm_add_r	           arm_rot_r	        elbow_flex_r	           pro_sup_r	        wrist_flex_r	         wrist_dev_r	          arm_flex_l	           arm_add_l	           arm_rot_l	        elbow_flex_l	           pro_sup_l	        wrist_flex_l	         wrist_dev_l	          end_eff_tx	          end_eff_ty	          end_eff_tz	             goal_tx	             goal_ty	             goal_tz	            elbow_tx	            elbow_ty	            elbow_tz	
          0.01000000	          0.00000000	          0.00000000	        393.21326576	        472.04296389	        343.96375192	          0.00000000	          0.00000000	          0.00000000	          0.00000000	          0.00000000	          0.00000000	          0.00000000	          0.00000000	          0.00000000	          0.00000000	          0.00000000	          0.00000000	          0.00000000	          0.00000000	         -6.80049992	          0.90389901	          1.69480991	         25.11683083	        -34.35660934	         34.00974655	         87.61580658	         87.27771759	          0.00000000	          0.00000000	          0.00000000	          0.00000000	          0.00000000	          0.00000000	          0.00000000	          0.00000000	          0.00000000	        775.41645809	        306.01106595	        395.41612649	        756.55935137	        394.47657881	        401.90885879	        459.11912747	        315.00032915	        665.02074670	
          0.02000000	          0.00000000	          0.00000000	        393.23823421	        472.07115397	        343.97358748	          0.00000000	          0.00000000	          0.00000000	          0.00000000	          0.00000000	          0.00000000	          0.00000000	          0.00000000	          0.00000000	          0.00000000	          0.00000000	          0.00000000	          0.00000000	          0.00000000	         -6.79399920	          0.90742129	          1.69359100	         25.13828659	        -34.36645889	         34.00664139	         87.60153961	         87.33232117	          0.00000000	          0.00000000	          0.00000000	          0.00000000	          0.00000000	          0.00000000	          0.00000000	          0.00000000	          0.00000000	        775.46772386	        306.03097075	        395.47628922	        756.46906591	        394.41132271	        401.91711410	        459.14890151	        314.99448087	        665.03839612	
          0.03000000	          0.00000000	          0.00000000	        393.27429384	        472.09430895	        343.97573025	          0.00000000	          0.00000000	          0.00000000	          0.00000000	          0.00000000	          0.00000000	          0.00000000	          0.00000000	          0.00000000	          0.00000000	          0.00000000	          0.00000000	          0.00000000	          0.00000000	         -6.78494501	          0.91226524	          1.68770504	         25.13966751	        -34.37951660	         34.02960968	         87.60490417	         87.26756287	          0.00000000	          0.00000000	          0.00000000	          0.00000000	          0.00000000	          0.00000000	          0.00000000	          0.00000000	          0.00000000	        775.46006248	        305.98638812	        395.45127942	        756.48119780	        394.40231782	        401.92005283	        459.12777682	        315.06903357	        665.07083355	
          0.04000000	          0.00000000	          0.00000000	        393.44532997	        472.32153267	        344.00199412	          0.00000000	          0.00000000	          0.00000000	          0.00000000	          0.00000000	          0.00000000	          0.00000000	          0.00000000	          0.00000000	          0.00000000	          0.00000000	          0.00000000	          0.00000000	          0.00000000	         -6.72216511	          1.00089550	          1.66577256	         25.10548973	        -34.45411682	         34.14064789	         87.57212830	         87.14463043	          0.00000000	          0.00000000	          0.00000000	          0.00000000	          0.00000000	          0.00000000	          0.00000000	          0.00000000	          0.00000000	        775.32362694	        307.59508466	        395.70741380	        756.50166798	        394.40196551	        401.90784400	        459.14448990	        315.08116848	        665.06293434	
          0.05000000	          0.00000000	          0.00000000	        393.47557985	        472.33891659	        344.00397543	          0.00000000	          0.00000000	          0.00000000	          0.00000000	          0.00000000	          0.00000000	          0.00000000	          0.00000000	          0.00000000	          0.00000000	          0.00000000	          0.00000000	          0.00000000	          0.00000000	         -6.70642090	          1.01336288	          1.66016567	         25.11645889	        -34.48122787	         34.17416382	         87.56412506	         87.05104828	          0.00000000	          0.00000000	          0.00000000	          0.00000000	          0.00000000	          0.00000000	          0.00000000	          0.00000000	          0.00000000	        775.33566588	        307.61548451	        395.73875819	        756.46575919	        394.45504820	        401.93581896	        459.09951611	        315.14710861	        665.14424517	
          0.06000000	          0.00000000	          0.00000000	        393.54262830	        472.39585945	        343.94735001	          0.00000000	          0.00000000	          0.00000000	          0.00000000	          0.00000000	          0.00000000	          0.00000000	          0.00000000	          0.00000000	          0.00000000	          0.00000000	          0.00000000	          0.00000000	          0.00000000	         -6.70832920	          0.95324779	          1.69190454	         25.07816696	        -34.47229385	         34.07198334	         87.53558350	         86.87846375	          0.00000000	          0.00000000	          0.00000000	          0.00000000	          0.00000000	          0.00000000	          0.00000000	          0.00000000	          0.00000000	        775.38769295	        307.74300834	        395.85311045	        756.92119986	        394.42147969	        401.98445422	        458.93306464	        315.59547808	        666.02590780	
          0.07000000	          0.00000000	          0.00000000	        393.60480430	        472.43155524	        343.93097614	          0.00000000	          0.00000000	          0.00000000	          0.00000000	          0.00000000	          0.00000000	          0.00000000	          0.00000000	          0.00000000	          0.00000000	          0.00000000	          0.00000000	          0.00000000	          0.00000000	         -6.69244003	          0.95504093	          1.69193995	         25.07805061	        -34.49052048	         34.07749939	         87.57289886	         86.75350189	          0.00000000	          0.00000000	          0.00000000	          0.00000000	          0.00000000	          0.00000000	          0.00000000	          0.00000000	          0.00000000	        775.34620408	        307.69817563	        395.82750877	        756.46078440	        394.05237227	        402.08448215	        458.86935982	        315.65917206	        666.10219228	
          0.08000000	          0.00000000	          0.00000000	        393.62446157	        472.43905100	        343.90723544	          0.00000000	          0.00000000	          0.00000000	          0.00000000	          0.00000000	          0.00000000	          0.00000000	          0.00000000	          0.00000000	          0.00000000	          0.00000000	          0.00000000	          0.00000000	          0.00000000	         -6.68809366	          0.94585943	          1.70274293	         25.06988144	        -34.47826385	         34.06338501	         87.56410980	         87.04204559	          0.00000000	          0.00000000	          0.00000000	          0.00000000	          0.00000000	          0.00000000	          0.00000000	          0.00000000	          0.00000000	        775.34749250	        307.58563933	        395.83230897	        756.44309088	        394.00267542	        402.07650416	        459.14922074	        315.06197495	        664.98895238	
          0.09000000	          0.00000000	          0.00000000	        393.64831833	        472.46831246	        343.90449565	          0.00000000	          0.00000000	          0.00000000	          0.00000000	          0.00000000	          0.00000000	          0.00000000	          0.00000000	          0.00000000	          0.00000000	          0.00000000	          0.00000000	          0.00000000	          0.00000000	         -6.68005323	          0.94206101	          1.70374262	         25.07288933	        -34.48740005	         34.07057571	         87.56095886	         87.02573395	          0.00000000	          0.00000000	          0.00000000	          0.00000000	          0.00000000	          0.00000000	          0.00000000	          0.00000000	          0.00000000	        775.37505947	        307.63837986	        395.86800450	        756.45642635	        394.05233410	        402.12786105	        459.15699602	        315.04014860	        664.88503778	
          0.10000000	          0.00000000	          0.00000000	        393.70467430	        472.48362203	        343.88924756	          0.00000000	          0.00000000	          0.00000000	          0.00000000	          0.00000000	          0.00000000	          0.00000000	          0.00000000	          0.00000000	          0.00000000	          0.00000000	          0.00000000	          0.00000000	          0.00000000	         -6.67303276	          0.93331003	          1.71271968	         25.04669952	        -34.47027588	         34.04152298	         87.55725861	         86.89643860	          0.00000000	          0.00000000	          0.00000000	          0.00000000	          0.00000000	          0.00000000	          0.00000000	          0.00000000	          0.00000000	        775.32017837	        307.70913240	        395.84350885	        756.41130739	        393.97274884	        402.11109045	        459.12447369	        315.02511219	        664.85129101	
          0.11000000	          0.00000000	          0.00000000	        393.70263327	        472.50512354	        343.88518068	          0.00000000	          0.00000000	          0.00000000	          0.00000000	          0.00000000	          0.00000000	          0.00000000	          0.00000000	          0.00000000	          0.00000000	          0.00000000	          0.00000000	          0.00000000	          0.00000000	         -6.66940689	          0.93434590	          1.71354532	         25.01801491	        -34.46230698	         34.01878357	         87.57205963	         87.03813171	          0.00000000	          0.00000000	          0.00000000	          0.00000000	          0.00000000	          0.00000000	          0.00000000	          0.00000000	          0.00000000	        775.38272658	        307.57027881	        395.84334193	        756.42492758	        394.00745417	        402.09125666	        459.12782844	        314.99467291	        664.77031416	
